<?xml version="1.0" encoding="UTF-8" standalone="no"?>
<svg
   width="446"
   height="444"
   xml:space="preserve"
   overflow="hidden"
   version="1.1"
   id="svg11"
   sodipodi:docname="logo.svg"
   inkscape:version="1.4.3 (0d15f75042, 2025-12-25)"
   xmlns:inkscape="http://www.inkscape.org/namespaces/inkscape"
   xmlns:sodipodi="http://sodipodi.sourceforge.net/DTD/sodipodi-0.dtd"
   xmlns="http://www.w3.org/2000/svg"
   xmlns:svg="http://www.w3.org/2000/svg"><sodipodi:namedview
     id="namedview11"
     pagecolor="#ffffff"
     bordercolor="#000000"
     borderopacity="0.25"
     inkscape:showpageshadow="2"
     inkscape:pageopacity="0.0"
     inkscape:pagecheckerboard="0"
     inkscape:deskcolor="#d1d1d1"
     inkscape:zoom="1.04244"
     inkscape:cx="325.19856"
     inkscape:cy="170.75323"
     inkscape:window-width="1920"
     inkscape:window-height="1002"
     inkscape:window-x="0"
     inkscape:window-y="0"
     inkscape:window-maximized="1"
     inkscape:current-layer="g11" /><defs
     id="defs1"><clipPath
       id="clip0"><rect
         x="746"
         y="199"
         width="446"
         height="444"
         id="rect1" /></clipPath></defs><g
     clip-path="url(#clip0)"
     transform="translate(-746 -199)"
     id="g11"><path
       d="M0 0C-121.645 0-220.612 98.9675-220.612 220.612-220.612 342.26-121.645 441.225 0 441.225 121.648 441.225 220.612 342.26 220.612 220.612 220.612 98.9675 121.648 0 0 0"
       fill="#00FFFF"
       transform="matrix(1.0045 0 0 -1 969.001 641.762)"
       id="path1" /><path
       d="M0 0C-122.608 0-222-99.3921-222-222-222-344.608-122.608-444 0-444 122.608-444 222-344.608 222-222 222-99.3921 122.608 0 0 0M0-2.775C120.882-2.775 219.225-101.118 219.225-222 219.225-342.881 120.882-441.225 0-441.225-120.882-441.225-219.225-342.881-219.225-222-219.225-101.118-120.882-2.775 0-2.775"
       transform="matrix(1.0045 0 0 -1 969.001 199.148)"
       id="path2" /><path
       d="M -2.6478405,-1.3591325 C 89.32116,25.855267 158.652,57.953 187.964,81.5738 c 16.77,13.5143 48.882,32.1322 86.775,38.5672 29.934,5.084 65.906,4.123 67.493,10.847 1.762,7.479 -41.264,12.31 -60.262,25.308 -22.899,15.671 -46.684,20.632 -53.03,20.491 -44.425,-0.994 -75.832,-28.574 -124.137,-48.21 -25.6351,-10.42 -69.400015,-27.71012 -115.548215,-40.930222 -1.157868,-14.570694 -2.056378,-21.701075 -1.129528,-35.836875 1.12387,-17.119 4.7591525,-39.155336 9.2269025,-53.1690355"
       stroke="#000000"
       stroke-width="2.775"
       stroke-miterlimit="10"
       fill="#b3b3b3"
       transform="matrix(1.0045,0,0,-1,759.593,483.89)"
       id="path3"
       sodipodi:nodetypes="cccccccccc" /><path
       d="M0 0 0-35.0815"
       stroke="#000000"
       stroke-width="2.775"
       stroke-miterlimit="10"
       fill="none"
       transform="matrix(1.0045 0 0 -1 1042.83 327.592)"
       id="path4" /><path
       d="m -0.65655586,1.3789762 12.67688186,-6.0835746 11.275483,-3.8816777 11.562013,-3.4664249 9.289434,-2.753322 6.379992,-2.219644 2.652279,-1.102995 2.443374,-1.372794 0.954223,-0.832345 0.417042,-0.622501 -0.10526,-0.570442 -0.847753,-0.734583 -1.866883,-0.882492 -1.92657,-0.582715 -6.988813,-1.521544 -10.4313,-0.9935 -12.720818,-1.293177 -10.73903,-0.888478 -12.02429486,-1.3653 z"
       fill="#ffff00"
       transform="matrix(1.0045,0,0,-1,1044.81,331.359)"
       id="path5"
       sodipodi:nodetypes="cccccccccccccccccccc" /><path
       d="M0 0 11.2609-3.22732 0-4.16805Z"
       transform="matrix(1.0045 0 0 -1 1055.12 341.905)"
       id="path6" /><path
       d="M0 0C0.197025-2.2866-1.49295-4.29847-3.77955-4.49827-6.06614-4.6953-8.08079-3.00255-8.27782-0.718724-8.47762 1.56787-6.78487 3.58252-4.49827 3.77955-2.21167 3.97935-0.197025 2.2866 0 0"
       stroke="#ED1C24"
       stroke-width="0.693749"
       stroke-miterlimit="10"
       transform="matrix(1.0045 0 0 -1 996.652 332.885)"
       id="path7" /><path
       d="M53.4334 0.00265793 17.4669 0.00265793 17.4669-15.3465 22.9953-15.3465 22.9953-48.7439 15.6133-48.7439 15.6133-37.0695 3.58111-37.0695 3.58111-64.0608 67.1241-64.0608 67.1241-37.0695 55.092-37.0695 55.092-48.7439 47.7752-48.7439 47.7752-15.3465 53.4334-15.3465ZM125.822-28.2242 142.44-22.3708C141.025-15.5416 137.789-9.93205 132.716-5.55818 127.594-1.17617 120.538 1.01076 111.546 1.01076 99.2536 1.01076 90.1561-2.19241 84.262-8.61501 78.3435-15.0051 75.3842-22.8017 75.3842-31.9966 75.3842-41.2728 78.2785-49.1505 84.0669-55.6381 89.8716-62.1178 97.416-65.3615 106.7-65.3615 114.221-65.3615 120.342-63.508 125.074-59.8006L125.074-64.0608 140.456-64.0608 140.456-40.6792 124.489-40.6792C123.643-43.5816 122.245-45.8824 120.294-47.5734 118.318-49.2401 116.074-50.0773 113.562-50.0773 106.619-50.0773 103.156-44.1019 103.156-32.1592 103.156-20.1676 106.741-14.1759 113.92-14.1759 120.228-14.1759 124.196-18.8587 125.822-28.2242ZM199.113-22.0781 192.576-22.0781 192.576-34.2079 221.226-34.2079C221.226-27.1999 220.738-21.9968 219.763-18.5985 218.803-15.3221 216.811-11.997 213.779-8.61501 210.804-5.24924 207.194-2.81027 202.95-1.29812 198.723 0.238424 194.178 1.01076 189.324 1.01076 182.105 1.01076 175.544-0.176199 169.65-2.56638 163.732-4.90778 159.154-8.77759 155.927-14.1759 152.675-19.4846 151.049-25.4438 151.049-32.0615 151.049-42.0287 154.333-50.0773 160.902-56.1909 167.406-62.3048 175.382-65.3615 184.837-65.3615 192.723-65.3615 198.918-63.4428 203.405-59.6056L203.405-64.0608 218.852-64.0608 218.852-41.6874 203.405-41.6874C202.056-44.4352 200.3-46.5164 198.137-47.9311 195.966-49.3619 193.438-50.0773 190.56-50.0773 186.503-50.0773 183.52-48.7523 181.617-46.1099 179.747-43.4598 178.821-38.606 178.821-31.5412 178.821-24.517 179.796-19.7448 181.747-17.2327 183.764-14.6718 186.666-13.3954 190.463-13.3954 196.227-13.3954 199.113-16.2896 199.113-22.0781Z"
       stroke="#000000"
       stroke-width="2.775"
       fill="#FFFFFF"
       transform="matrix(1.0045 0 0 1 855.46 555.209)"
       id="path8" /><path
       d="M204.665 100.655 274.565 100.655 274.565 110.161 204.665 110.161Z"
       stroke="#000000"
       stroke-width="4.16251"
       stroke-linecap="round"
       stroke-linejoin="round"
       transform="matrix(1.0045 0 0 1 746 199)"
       id="path9" /><path
       d="M220.517 64.5361 257.424 64.5361 257.424 101.443 220.517 101.443Z"
       stroke="#000000"
       stroke-width="4.16251"
       stroke-linecap="round"
       stroke-linejoin="round"
       transform="matrix(1.0045 0 0 1 746 199)"
       id="path10" /><path
       d="M218.465 84.3707 259.489 84.3707 259.489 92.9708 218.465 92.9708Z"
       fill="#FE0000"
       transform="matrix(1.0045 0 0 1 746 199)"
       id="path11" /></g></svg>
