<svg width="446" height="444" xmlns="http://www.w3.org/2000/svg" xmlns:xlink="http://www.w3.org/1999/xlink" xml:space="preserve" overflow="hidden"><defs><clipPath id="clip0"><rect x="746" y="199" width="446" height="444"/></clipPath></defs><g clip-path="url(#clip0)" transform="translate(-746 -199)"><path d="M0 0C-121.645 0-220.612 98.9675-220.612 220.612-220.612 342.26-121.645 441.225 0 441.225 121.648 441.225 220.612 342.26 220.612 220.612 220.612 98.9675 121.648 0 0 0" fill="#00FFFF" transform="matrix(1.0045 0 0 -1 969.001 641.762)"/><path d="M0 0C-122.608 0-222-99.3921-222-222-222-344.608-122.608-444 0-444 122.608-444 222-344.608 222-222 222-99.3921 122.608 0 0 0M0-2.775C120.882-2.775 219.225-101.118 219.225-222 219.225-342.881 120.882-441.225 0-441.225-120.882-441.225-219.225-342.881-219.225-222-219.225-101.118-120.882-2.775 0-2.775" transform="matrix(1.0045 0 0 -1 969.001 199.148)"/><path d="M0 0C91.969 27.2144 158.652 57.953 187.964 81.5738 204.734 95.0881 236.846 113.706 274.739 120.141 304.673 125.225 340.645 124.264 342.232 130.988 343.994 138.467 300.968 143.298 281.97 156.296 259.071 171.967 235.286 176.928 228.94 176.787 184.515 175.793 153.108 148.213 104.803 128.577 79.1679 118.157 36.0472 103.019-10.101 89.7989-8.42767 74.9027-9.34619 58.755-8.41934 44.6192-7.29547 27.5002-4.46775 14.0137 0 0" stroke="#000000" stroke-width="2.775" stroke-miterlimit="10" fill="#B3B3B3" transform="matrix(1.0045 0 0 -1 759.593 483.89)"/><path d="M0 0 0-35.0815" stroke="#000000" stroke-width="2.775" stroke-miterlimit="10" fill="none" transform="matrix(1.0045 0 0 -1 1042.83 327.592)"/><path d="M0 0 11.7965-5.21422 23.2212-9.06592 34.8429-12.8621 43.8339-15.6454 50.2885-17.3854 56.9957-20.116 57.2926-22.9798 52.2477-24.5809 45.1992-25.0832 34.7679-26.0767 21.8531-27.0701 11.5468-28.0635 0-29.4288Z" fill="#FFFF00" transform="matrix(1.0045 0 0 -1 1044.81 331.359)"/><path d="M0 0 11.2609-3.22732 0-4.16805Z" transform="matrix(1.0045 0 0 -1 1055.12 341.905)"/><path d="M0 0C0.197025-2.2866-1.49295-4.29847-3.77955-4.49827-6.06614-4.6953-8.08079-3.00255-8.27782-0.718724-8.47762 1.56787-6.78487 3.58252-4.49827 3.77955-2.21167 3.97935-0.197025 2.2866 0 0" stroke="#ED1C24" stroke-width="0.693749" stroke-miterlimit="10" transform="matrix(1.0045 0 0 -1 996.652 332.885)"/><path d="M53.4334 0.00265793 17.4669 0.00265793 17.4669-15.3465 22.9953-15.3465 22.9953-48.7439 15.6133-48.7439 15.6133-37.0695 3.58111-37.0695 3.58111-64.0608 67.1241-64.0608 67.1241-37.0695 55.092-37.0695 55.092-48.7439 47.7752-48.7439 47.7752-15.3465 53.4334-15.3465ZM125.822-28.2242 142.44-22.3708C141.025-15.5416 137.789-9.93205 132.716-5.55818 127.594-1.17617 120.538 1.01076 111.546 1.01076 99.2536 1.01076 90.1561-2.19241 84.262-8.61501 78.3435-15.0051 75.3842-22.8017 75.3842-31.9966 75.3842-41.2728 78.2785-49.1505 84.0669-55.6381 89.8716-62.1178 97.416-65.3615 106.7-65.3615 114.221-65.3615 120.342-63.508 125.074-59.8006L125.074-64.0608 140.456-64.0608 140.456-40.6792 124.489-40.6792C123.643-43.5816 122.245-45.8824 120.294-47.5734 118.318-49.2401 116.074-50.0773 113.562-50.0773 106.619-50.0773 103.156-44.1019 103.156-32.1592 103.156-20.1676 106.741-14.1759 113.92-14.1759 120.228-14.1759 124.196-18.8587 125.822-28.2242ZM199.113-22.0781 192.576-22.0781 192.576-34.2079 221.226-34.2079C221.226-27.1999 220.738-21.9968 219.763-18.5985 218.803-15.3221 216.811-11.997 213.779-8.61501 210.804-5.24924 207.194-2.81027 202.95-1.29812 198.723 0.238424 194.178 1.01076 189.324 1.01076 182.105 1.01076 175.544-0.176199 169.65-2.56638 163.732-4.90778 159.154-8.77759 155.927-14.1759 152.675-19.4846 151.049-25.4438 151.049-32.0615 151.049-42.0287 154.333-50.0773 160.902-56.1909 167.406-62.3048 175.382-65.3615 184.837-65.3615 192.723-65.3615 198.918-63.4428 203.405-59.6056L203.405-64.0608 218.852-64.0608 218.852-41.6874 203.405-41.6874C202.056-44.4352 200.3-46.5164 198.137-47.9311 195.966-49.3619 193.438-50.0773 190.56-50.0773 186.503-50.0773 183.52-48.7523 181.617-46.1099 179.747-43.4598 178.821-38.606 178.821-31.5412 178.821-24.517 179.796-19.7448 181.747-17.2327 183.764-14.6718 186.666-13.3954 190.463-13.3954 196.227-13.3954 199.113-16.2896 199.113-22.0781Z" stroke="#000000" stroke-width="2.775" fill="#FFFFFF" transform="matrix(1.0045 0 0 1 855.46 555.209)"/><path d="M204.665 100.655 274.565 100.655 274.565 110.161 204.665 110.161Z" stroke="#000000" stroke-width="4.16251" stroke-linecap="round" stroke-linejoin="round" transform="matrix(1.0045 0 0 1 746 199)"/><path d="M220.517 64.5361 257.424 64.5361 257.424 101.443 220.517 101.443Z" stroke="#000000" stroke-width="4.16251" stroke-linecap="round" stroke-linejoin="round" transform="matrix(1.0045 0 0 1 746 199)"/><path d="M218.465 84.3707 259.489 84.3707 259.489 92.9708 218.465 92.9708Z" fill="#FE0000" transform="matrix(1.0045 0 0 1 746 199)"/></g></svg>